<svg width="593" height="427" viewBox="0 0 593 427" fill="none" xmlns="http://www.w3.org/2000/svg">
<path d="M531.883 154.235H581.441V162.095H531.883V154.235Z" fill="#4D8AF0"/>
<path d="M581.441 161.91L587.049 427H583.545L575.78 162.095L581.441 161.91Z" fill="#EEEEEE"/>
<path d="M531.89 161.91L526.288 427H529.786L537.551 162.095L531.89 161.91Z" fill="#EEEEEE"/>
<path d="M570.881 162.095L576.891 427H572.689L567.14 161.91L570.881 162.095Z" fill="#E0E0E0"/>
<path d="M541.404 162.095L535.388 427H539.596L545.139 161.91L541.404 162.095Z" fill="#E0E0E0"/>
<path d="M540.115 394.824H571.986V398.847H540.115V394.824Z" fill="#E0E0E0"/>
<path d="M538.715 372.52H573.038V376.543H538.715V372.52Z" fill="#E0E0E0"/>
<path d="M538.715 350.579H571.986V354.602H538.715V350.579Z" fill="#E0E0E0"/>
<path d="M540.115 328.275H571.986V332.298H540.115V328.275Z" fill="#E0E0E0"/>
<path d="M540.115 305.243H571.986V308.902H540.115V305.243Z" fill="#E0E0E0"/>
<path d="M540.115 283.303H570.934V287.69H540.115V283.303Z" fill="#E0E0E0"/>
<path d="M541.167 261.362H570.934V264.287H541.167V261.362Z" fill="#E0E0E0"/>
<path d="M543.62 237.967H569.888V242.717H543.62V237.967Z" fill="#E0E0E0"/>
<path d="M542.575 216.026H569.888V220.049H542.575V216.026Z" fill="#E0E0E0"/>
<path d="M542.575 193.358H569.888V197.745H542.575V193.358Z" fill="#E0E0E0"/>
<path d="M543.62 171.054H568.488V175.441H543.62V171.054Z" fill="#E0E0E0"/>
<path d="M520.16 139.242H593V155.333H520.16V139.242Z" fill="#4D8AF0"/>
<g opacity="0.5">
<path opacity="0.5" d="M524.006 26.0868L549.34 43.3179C549.588 42.252 550.166 41.3012 550.984 40.6131C550.687 39.7827 550.639 38.8777 550.846 38.0181C550.884 37.7707 550.977 37.5357 551.116 37.3316C551.247 37.2034 551.405 37.1102 551.578 37.06C551.751 37.0098 551.933 37.0041 552.109 37.0433L556.133 37.3179C556.601 37.2943 557.064 37.4344 557.448 37.7161C558.013 38.2103 558.184 39.2469 558.763 39.6863C559.151 39.9746 559.644 39.9472 560.078 40.1737C561.005 40.6886 561.209 42.2332 561.281 43.4895C561.38 45.2057 561.373 47.224 560.301 48.2949C559.519 49.057 558.434 48.9814 557.448 48.9265L556.455 48.8441C556.204 48.9996 555.94 49.1306 555.666 49.2354V50.6977H555.85C555.85 50.6977 567.205 47.2652 579.679 83.1277H579.896C579.896 83.1277 581.737 89.6494 578.791 88.503C576.227 87.5007 576.161 84.1574 576.207 83.3199H576.036C576.036 83.3199 570.888 67.5855 562.8 65.6633C562.8 65.6633 556.915 73.3383 566.476 88.6883H558.993C559.017 90.4057 558.685 92.1081 558.02 93.6791C555.817 98.2855 562.432 142.036 562.432 142.036H556.915L554.14 127.537L553.792 142.036H549.748L545.704 114.157L546.257 80.5739V71.876L545.52 72.8989V59.4642H534.862L533.021 44.4986H533.211C533.166 43.4533 533.208 42.4059 533.336 41.3682L519.594 38.3545C517.431 28.7642 524.006 26.0868 524.006 26.0868ZM536.039 44.732L539.261 53.3338C539.261 53.3338 548.085 49.1119 551.392 50.6496H551.576V48.8235C550.9 48.4154 550.329 47.8402 549.916 47.1484C549.502 46.4566 549.257 45.6693 549.202 44.8556L535.953 41.9517C536.125 42.8652 536.156 43.8014 536.045 44.7252L536.039 44.732Z" fill="url(#paint0_linear)"/>
</g>
<path d="M534.033 46.9357C534.033 46.9357 533.613 40.5925 535.506 41.9861C537.4 43.3796 536.585 47.327 536.585 47.327L534.033 46.9357Z" fill="#FDA57D"/>
<path d="M578.469 83.114C578.469 83.114 580.218 89.3268 577.417 88.2352C574.616 87.1437 574.964 83.114 574.964 83.114H578.469Z" fill="#FDA57D"/>
<path d="M551.497 49.8396H555.35V53.4986H551.497V49.8396Z" fill="#FDA57D"/>
<path d="M555.357 69.9539H558.506V86.4091H555.357V69.9539Z" fill="#4D8AF0"/>
<path opacity="0.1" d="M555.357 69.9539H558.506V86.4091H555.357V69.9539Z" fill="black"/>
<path d="M553.851 52.2217H550.208C549.206 52.2217 548.244 52.6376 547.535 53.3778C546.826 54.1181 546.428 55.1221 546.428 56.169V80.7387H557.606V56.169C557.606 55.1269 557.211 54.127 556.507 53.3875C555.804 52.648 554.849 52.2289 553.851 52.2217Z" fill="white"/>
<path d="M553.779 51.1164C551.266 51.1164 549.229 48.9895 549.229 46.3659C549.229 43.7422 551.266 41.6153 553.779 41.6153C556.292 41.6153 558.329 43.7422 558.329 46.3659C558.329 48.9895 556.292 51.1164 553.779 51.1164Z" fill="#FDA57D"/>
<path d="M555.528 52.2217C555.528 52.2217 566.383 48.9334 578.291 83.2993H574.787C574.787 83.2993 569.881 68.3063 562.182 66.4802C562.182 66.4802 556.58 73.7914 565.686 88.448H558.329V83.5465C558.372 76.1175 557.488 68.7142 555.699 61.5237C554.855 58.4933 554.796 55.2836 555.528 52.2217Z" fill="#4D8AF0"/>
<path d="M551.326 52.2217V53.3201C551.326 53.3201 548.874 64.6541 546.776 71.9653L545.704 73.455V60.6313H535.546L533.797 46.3728H536.598L539.787 54.7754C539.787 54.7754 548.177 50.7526 551.326 52.2217Z" fill="#4D8AF0"/>
<path d="M557.632 80.7387C557.632 80.7387 559.736 88.7844 557.632 93.1711C555.528 97.5578 561.833 139.242 561.833 139.242H556.573L549.045 99.9331L547.822 80.7112L557.632 80.7387Z" fill="#333333"/>
<path d="M546.421 80.7387L545.895 112.729L549.748 139.242H553.601L555.002 80.7387H546.421Z" fill="#333333"/>
<path d="M554.522 44.5535C554.428 44.3949 554.313 44.2515 554.18 44.1279C554.048 44.0473 553.898 44.0047 553.746 44.0043C552.792 43.922 551.694 43.9014 551.116 42.9609C550.691 42.1166 550.587 41.1355 550.826 40.2149C550.858 39.9678 550.946 39.7323 551.083 39.5284C551.208 39.4061 551.359 39.3173 551.524 39.2694C551.689 39.2216 551.862 39.2162 552.03 39.2538L555.863 39.5147C556.301 39.4972 556.733 39.6298 557.093 39.8922C557.632 40.3659 557.79 41.3476 558.355 41.7732C558.73 42.0478 559.197 42.0204 559.591 42.24C560.472 42.7275 560.663 44.1828 560.735 45.3979C560.827 47.0318 560.827 48.954 559.802 49.9494C559.059 50.6771 558.026 50.6359 557.086 50.5535L555.337 50.4025C555.161 50.4075 554.987 50.352 554.844 50.2446C554.733 50.0902 554.655 49.9132 554.614 49.7251C554.573 49.5371 554.571 49.3422 554.607 49.1531C554.653 48.2332 554.745 47.1897 555.324 46.6268C555.462 46.5185 555.588 46.3941 555.699 46.256C556.323 45.24 554.851 45.0066 554.522 44.5535Z" fill="#333333"/>
<path d="M525.236 28.8328C525.236 28.8328 518.93 31.3934 521.034 40.5032L549.4 46.716V45.2538L525.236 28.8328Z" fill="#F55F44"/>
<path opacity="0.1" d="M531.89 155.148H581.27V156.61H531.89V155.148Z" fill="black"/>
<path opacity="0.1" d="M569.362 258.259H573.215V258.994H569.362V258.259Z" fill="black"/>
<path opacity="0.1" d="M539.241 258.259H543.094V258.994H539.241V258.259Z" fill="black"/>
<path d="M532.061 252.225H581.441V258.438H532.061V252.225Z" fill="#EEEEEE"/>
<path d="M493.615 26.3271L493.122 26.0662L493.241 26.0525L493.201 26.025L493.274 26.0456L506.845 24.2127L506.556 28.9015L506.128 33.0616L505.293 32.6154L504.517 34.4552L493.615 26.3271Z" fill="url(#paint1_linear)"/>
<path d="M506.102 28.8122L505.707 32.6223L493.576 26.2035L504.11 26.4438L506.102 28.8122Z" fill="#4E42F3"/>
<path opacity="0.2" d="M506.102 28.8122L505.707 32.6223L493.576 26.2035L504.11 26.4438L506.102 28.8122Z" fill="black"/>
<path d="M506.371 24.5216L493.576 26.2035L506.102 28.8122L506.371 24.5216Z" fill="#4E42F3"/>
<path d="M504.208 33.8854L493.648 26.1623L505.891 29.9655L504.208 33.8854Z" fill="#4E42F3"/>
<path d="M427.817 6.70019L427.324 6.43932L427.442 6.41873L427.403 6.39127L427.475 6.41873L441.053 4.58578L440.757 9.27455L440.33 13.4347L439.495 12.9885L438.719 14.8283L427.817 6.70019Z" fill="url(#paint2_linear)"/>
<path d="M440.303 9.18531L439.909 12.9954L427.778 6.57663L438.311 6.8169L440.303 9.18531Z" fill="#4E42F3"/>
<path opacity="0.2" d="M440.303 9.18531L439.909 12.9954L427.778 6.57663L438.311 6.8169L440.303 9.18531Z" fill="black"/>
<path d="M440.573 4.89471L427.778 6.57663L440.303 9.18531L440.573 4.89471Z" fill="#4E42F3"/>
<path d="M438.41 14.2585L427.85 6.53543L440.093 10.3317L438.41 14.2585Z" fill="#4E42F3"/>
<path d="M312.534 0.576656L311.856 0.0480547L312.034 0.0549196L311.988 0L312.087 0.0549196L332.989 0.954228L331.385 7.94275L329.715 14.0869L328.564 13.1876L326.947 15.7482L312.534 0.576656Z" fill="url(#paint3_linear)"/>
<path d="M330.721 7.68187L329.189 13.3111L312.501 0.370697L328.308 3.57663L330.721 7.68187Z" fill="#4E42F3"/>
<path opacity="0.2" d="M330.721 7.68187L329.189 13.3111L312.501 0.370697L328.308 3.57663L330.721 7.68187Z" fill="black"/>
<path d="M332.187 1.2906L312.501 0.370697L330.721 7.68187L332.187 1.2906Z" fill="#4E42F3"/>
<path d="M326.618 14.8146L312.619 0.329529L330.122 9.35694L326.618 14.8146Z" fill="#4E42F3"/>
<path d="M368.022 40.0982L367.483 39.9678L367.595 39.9266L367.549 39.906H367.627L380.377 34.7161L381.172 39.343L381.718 43.4826L380.804 43.2629L380.482 45.24L368.022 40.0982Z" fill="url(#paint4_linear)"/>
<path d="M380.712 39.3705L381.212 43.16L367.956 39.9883L378.233 37.5719L380.712 39.3705Z" fill="#4E42F3"/>
<path opacity="0.2" d="M380.712 39.3705L381.212 43.16L367.956 39.9883L378.233 37.5719L380.712 39.3705Z" fill="black"/>
<path d="M379.982 35.1348L367.956 39.9884L380.712 39.3705L379.982 35.1348Z" fill="#4E42F3"/>
<path d="M380.048 44.7663L368.015 39.9266L380.778 40.5375L380.048 44.7663Z" fill="#4E42F3"/>
<g opacity="0.5">
<path opacity="0.5" d="M442.999 88.9904L442.513 88.7226L442.625 88.7089L442.592 88.6814L442.664 88.7021L456.235 86.8691L455.939 91.5647L455.512 95.718L454.677 95.2718L453.908 97.1116L442.999 88.9904Z" fill="url(#paint5_linear)"/>
<path opacity="0.5" d="M455.486 91.4755L455.091 95.2787L442.96 88.86L453.493 89.1002L455.486 91.4755Z" fill="#4E42F3"/>
<path opacity="0.2" d="M455.486 91.4755L455.091 95.2787L442.96 88.86L453.493 89.1002L455.486 91.4755Z" fill="black"/>
<path opacity="0.5" d="M455.755 87.178L442.96 88.86L455.486 91.4755L455.755 87.178Z" fill="#4E42F3"/>
<path opacity="0.5" d="M453.592 96.5418L443.032 88.8188L455.275 92.6219L453.592 96.5418Z" fill="#4E42F3"/>
</g>
<g opacity="0.2">
<path opacity="0.2" d="M295.905 26.2447L295.228 25.7092L295.405 25.7161L295.353 25.668L295.458 25.723L316.354 26.6154L314.75 33.6039L313.086 39.7549L311.935 38.8556L310.311 41.4162L295.905 26.2447Z" fill="url(#paint6_linear)"/>
<path opacity="0.2" d="M314.092 33.3499L312.56 38.9723L295.872 26.0388L311.679 29.2447L314.092 33.3499Z" fill="#4E42F3"/>
<path opacity="0.2" d="M314.092 33.3499L312.56 38.9723L295.872 26.0388L311.679 29.2447L314.092 33.3499Z" fill="black"/>
<path opacity="0.2" d="M315.558 26.9587L295.872 26.0388L314.092 33.3499L315.558 26.9587Z" fill="#4E42F3"/>
<path opacity="0.2" d="M309.989 40.4826L295.99 25.9976L313.494 35.025L309.989 40.4826Z" fill="#4E42F3"/>
</g>
<g opacity="0.3">
<path opacity="0.3" d="M240.226 102.487L239.555 101.958L239.733 101.965L239.68 101.91L239.785 101.965L260.681 102.864L259.077 109.853L257.407 116.004L256.263 115.098L254.639 117.665L240.226 102.487Z" fill="url(#paint7_linear)"/>
<path opacity="0.3" d="M258.42 109.592L256.888 115.221L240.193 102.281L256.006 105.487L258.42 109.592Z" fill="#4E42F3"/>
<path opacity="0.2" d="M258.42 109.592L256.888 115.221L240.193 102.281L256.006 105.487L258.42 109.592Z" fill="black"/>
<path opacity="0.3" d="M259.886 103.201L240.193 102.281L258.42 109.592L259.886 103.201Z" fill="#4E42F3"/>
<path opacity="0.3" d="M254.317 116.725L240.318 102.247L257.821 111.267L254.317 116.725Z" fill="#4E42F3"/>
</g>
<g opacity="0.3">
<path opacity="0.3" d="M68.1457 140.237L67.4684 139.702L67.6459 139.709L67.5933 139.661L67.6985 139.709L88.5946 140.608L86.9902 147.596L85.3267 153.747L84.176 152.848L82.5585 155.409L68.1457 140.237Z" fill="url(#paint8_linear)"/>
<path opacity="0.3" d="M86.3327 147.342L84.8007 152.965L68.1127 140.024L83.9196 143.23L86.3327 147.342Z" fill="#4E42F3"/>
<path opacity="0.2" d="M86.3327 147.342L84.8007 152.965L68.1127 140.024L83.9196 143.23L86.3327 147.342Z" fill="black"/>
<path opacity="0.3" d="M87.799 140.951L68.1127 140.024L86.3327 147.342L87.799 140.951Z" fill="#4E42F3"/>
<path opacity="0.3" d="M82.2298 154.475L68.2311 139.99L85.7344 149.011L82.2298 154.475Z" fill="#4E42F3"/>
</g>
<g opacity="0.5">
<path opacity="0.5" d="M365.852 101.251L365.313 101.114L365.425 101.073L365.379 101.052L365.458 101.059L378.207 95.8622L379.003 100.489L379.548 104.636L378.641 104.409L378.312 106.386L365.852 101.251Z" fill="url(#paint9_linear)"/>
<path opacity="0.5" d="M378.542 100.517L379.042 104.306L365.786 101.134L376.064 98.718L378.542 100.517Z" fill="#4E42F3"/>
<path opacity="0.2" d="M378.542 100.517L379.042 104.306L365.786 101.134L376.064 98.718L378.542 100.517Z" fill="black"/>
<path opacity="0.5" d="M377.813 96.2809L365.786 101.134L378.542 100.517L377.813 96.2809Z" fill="#4E42F3"/>
<path opacity="0.5" d="M377.878 105.919L365.846 101.08L378.608 101.684L377.878 105.919Z" fill="#4E42F3"/>
</g>
<g opacity="0.5">
<path opacity="0.5" d="M129.42 191.079L128.881 190.949L128.986 190.901L128.947 190.887H129.026L141.768 185.697L142.571 190.324L143.116 194.463L142.202 194.237L141.874 196.221L129.42 191.079Z" fill="url(#paint10_linear)"/>
<path opacity="0.5" d="M142.11 190.351L142.603 194.141L129.348 190.969L139.631 188.553L142.11 190.351Z" fill="#4E42F3"/>
<path opacity="0.2" d="M142.11 190.351L142.603 194.141L129.348 190.969L139.631 188.553L142.11 190.351Z" fill="black"/>
<path opacity="0.5" d="M141.38 186.116L129.348 190.969L142.11 190.351L141.38 186.116Z" fill="#4E42F3"/>
<path opacity="0.5" d="M141.446 195.747L129.414 190.907L142.17 191.518L141.446 195.747Z" fill="#4E42F3"/>
</g>
<g opacity="0.5">
<path opacity="0.5" d="M143.879 95.9652L143.34 95.8279L143.452 95.7867L143.406 95.7661L143.485 95.7729L156.234 90.5762L157.03 95.2031L157.575 99.3496L156.661 99.123L156.333 101.1L143.879 95.9652Z" fill="url(#paint11_linear)"/>
<path opacity="0.5" d="M156.569 95.2306L157.069 99.0201L143.807 95.8485L154.09 93.432L156.569 95.2306Z" fill="#4E42F3"/>
<path opacity="0.2" d="M156.569 95.2306L157.069 99.0201L143.807 95.8485L154.09 93.432L156.569 95.2306Z" fill="black"/>
<path opacity="0.5" d="M155.839 91.0018L143.807 95.8484L156.569 95.2306L155.839 91.0018Z" fill="#4E42F3"/>
<path opacity="0.5" d="M155.905 100.633L143.873 95.7935L156.635 96.3977L155.905 100.633Z" fill="#4E42F3"/>
</g>
<g opacity="0.2">
<path opacity="0.2" d="M23.8549 16.6956L23.3158 16.5651L23.421 16.5239L23.3815 16.5033L23.4604 16.5102L36.2098 11.3134L37.0054 15.9404L37.5511 20.0869L36.6372 19.8603L36.3084 21.8374L23.8549 16.6956Z" fill="url(#paint12_linear)"/>
<path opacity="0.2" d="M36.5452 15.9679L37.0449 19.7573L23.7825 16.5857L34.0663 14.1693L36.5452 15.9679Z" fill="#4E42F3"/>
<path opacity="0.2" d="M36.5452 15.9679L37.0449 19.7573L23.7825 16.5857L34.0663 14.1693L36.5452 15.9679Z" fill="black"/>
<path opacity="0.2" d="M35.8152 11.7322L23.7825 16.5857L36.5451 15.9679L35.8152 11.7322Z" fill="#4E42F3"/>
<path opacity="0.2" d="M35.881 21.3706L23.8483 16.524L36.6043 17.1349L35.881 21.3706Z" fill="#4E42F3"/>
</g>
<g opacity="0.2">
<path opacity="0.2" d="M467.801 42.3636L467.262 42.2332L467.374 42.1851L467.328 42.1714H467.407L480.156 36.9815L480.952 41.6085L481.504 45.748L480.583 45.5215L480.261 47.5055L467.801 42.3636Z" fill="url(#paint13_linear)"/>
<path opacity="0.2" d="M480.491 41.6359L480.991 45.4254L467.735 42.2538L478.012 39.8373L480.491 41.6359Z" fill="#4E42F3"/>
<path opacity="0.2" d="M480.491 41.6359L480.991 45.4254L467.735 42.2538L478.012 39.8373L480.491 41.6359Z" fill="black"/>
<path opacity="0.2" d="M479.761 37.4003L467.735 42.2538L480.491 41.6359L479.761 37.4003Z" fill="#4E42F3"/>
<path opacity="0.2" d="M479.827 47.0318L467.795 42.192L480.557 42.803L479.827 47.0318Z" fill="#4E42F3"/>
</g>
<path d="M210.44 25.5308L209.691 25.1257L209.868 25.0983L209.809 25.0571L209.921 25.0914L230.666 22.2905L230.212 29.4644L229.561 35.8213L228.285 35.128L227.102 37.9426L210.44 25.5308Z" fill="url(#paint14_linear)"/>
<path d="M229.521 29.3271L228.923 35.1417L210.381 25.3317L226.477 25.7024L229.521 29.3271Z" fill="#4E42F3"/>
<path opacity="0.2" d="M229.521 29.3271L228.923 35.1417L210.381 25.3317L226.477 25.7024L229.521 29.3271Z" fill="black"/>
<path d="M229.936 22.7642L210.381 25.3317L229.521 29.3271L229.936 22.7642Z" fill="#4E42F3"/>
<path d="M226.628 37.0776L210.486 25.2699L229.199 31.0776L226.628 37.0776Z" fill="#4E42F3"/>
<path d="M162.145 136.462L160.212 136.585L160.534 136.324L160.37 136.31L160.633 136.242L198.243 105.356L205.41 119.992L211.269 133.283L207.988 133.489L208.816 140.464L162.145 136.462Z" fill="url(#paint15_linear)"/>
<path d="M203.898 120.569L209.243 132.727L161.797 136.153L193.844 117.178L203.898 120.569Z" fill="#4E42F3"/>
<path opacity="0.2" d="M203.898 120.569L209.243 132.727L161.797 136.153L193.844 117.178L203.898 120.569Z" fill="black"/>
<path d="M197.342 107.182L161.797 136.153L203.898 120.569L197.342 107.182Z" fill="#4E42F3"/>
<path d="M206.922 139.345L161.948 135.899L205.239 124.407L206.922 139.345Z" fill="#4E42F3"/>
<path d="M4.04378 253.372L0 253.509L0.683807 252.98L0.355049 252.939L0.900803 252.816L81.2764 190.832L95.3474 221.862L106.769 249.98L99.9172 250.207L101.219 264.809L4.04378 253.372Z" fill="url(#paint16_linear)"/>
<path d="M92.1518 222.967L102.58 248.697L3.33368 252.713L71.3807 215.216L92.1518 222.967Z" fill="#4E42F3"/>
<path opacity="0.2" d="M92.1518 222.967L102.58 248.697L3.33368 252.713L71.3807 215.216L92.1518 222.967Z" fill="black"/>
<path d="M79.2841 194.587L3.33368 252.713L92.1518 222.967L79.2841 194.587Z" fill="#4E42F3"/>
<path d="M97.3265 262.351L3.66895 252.184L94.7162 231.067L97.3265 262.351Z" fill="#4E42F3"/>
<path d="M72.8535 17.3134L71.0914 16.4759L71.4924 16.4004L71.3544 16.3111L71.6174 16.3798L118.696 7.44162L118.472 23.8832L117.703 38.4849L114.711 37.0707L112.318 43.6405L72.8535 17.3134Z" fill="url(#paint17_linear)"/>
<path d="M116.875 23.6498L116.158 37.009L72.6826 16.8672L109.51 15.7413L116.875 23.6498Z" fill="#4E42F3"/>
<path opacity="0.2" d="M116.875 23.6498L116.158 37.009L72.6826 16.8672L109.51 15.7413L116.875 23.6498Z" fill="black"/>
<path d="M117.079 8.61551L72.6826 16.8672L116.875 23.6498L117.079 8.61551Z" fill="#4E42F3"/>
<path d="M111.141 41.7252L72.9324 16.7162L116.342 27.7001L111.141 41.7252Z" fill="#4E42F3"/>
<path d="M22.9673 72.4184L21.1985 71.5877L21.5996 71.5122L21.4682 71.4161L21.7246 71.4847L68.8032 62.5466L68.5796 78.9881L67.8103 93.5899L64.8186 92.1826L62.4252 98.7455L22.9673 72.4184Z" fill="url(#paint18_linear)"/>
<path d="M66.9818 78.7616L66.2717 92.1208L22.7963 71.979L59.6241 70.8532L66.9818 78.7616Z" fill="#4E42F3"/>
<path opacity="0.2" d="M66.9818 78.7616L66.2717 92.1208L22.7963 71.979L59.6241 70.8532L66.9818 78.7616Z" fill="black"/>
<path d="M67.1922 63.7273L22.7963 71.979L66.9818 78.7616L67.1922 63.7273Z" fill="#4E42F3"/>
<path d="M61.2483 96.8301L23.0461 71.828L66.4493 82.805L61.2483 96.8301Z" fill="#4E42F3"/>
<path d="M275.712 69.1507L274.956 68.7456L275.134 68.725L275.081 68.6838L275.193 68.7182L295.931 65.9173L295.478 73.0843L294.833 79.4412L293.558 78.7547L292.374 81.5694L275.712 69.1507Z" fill="url(#paint19_linear)"/>
<path d="M294.787 72.9538L294.189 78.7616L275.647 68.9584L291.743 69.3291L294.787 72.9538Z" fill="#4E42F3"/>
<path opacity="0.2" d="M294.787 72.9538L294.189 78.7616L275.647 68.9584L291.743 69.3291L294.787 72.9538Z" fill="black"/>
<path d="M295.201 66.391L275.647 68.9584L294.787 72.9538L295.201 66.391Z" fill="#4E42F3"/>
<path d="M291.901 80.7044L275.758 68.8967L294.472 74.7044L291.901 80.7044Z" fill="#4E42F3"/>
<path d="M150.625 59.3406L149.876 58.9356L150.047 58.9081L149.994 58.867L150.106 58.9013L170.844 56.1004L170.397 63.2743L169.746 69.6312L168.47 68.9447L167.287 71.7525L150.625 59.3406Z" fill="url(#paint20_linear)"/>
<path d="M169.7 63.137L169.102 68.9516L150.56 59.1416L166.656 59.5123L169.7 63.137Z" fill="#4E42F3"/>
<path opacity="0.2" d="M169.7 63.137L169.102 68.9516L150.56 59.1416L166.656 59.5123L169.7 63.137Z" fill="black"/>
<path d="M170.114 56.5809L150.56 59.1416L169.7 63.137L170.114 56.5809Z" fill="#4E42F3"/>
<path d="M166.814 70.8875L150.671 59.0798L169.384 64.8944L166.814 70.8875Z" fill="#4E42F3"/>
<defs>
<linearGradient id="paint0_linear" x1="549.807" y1="141.981" x2="549.807" y2="26.0731" gradientUnits="userSpaceOnUse">
<stop stop-color="#808080" stop-opacity="0.25"/>
<stop offset="0.54" stop-color="#808080" stop-opacity="0.12"/>
<stop offset="1" stop-color="#808080" stop-opacity="0.1"/>
</linearGradient>
<linearGradient id="paint1_linear" x1="-4734.2" y1="4773.2" x2="-4723.63" y2="4618.73" gradientUnits="userSpaceOnUse">
<stop stop-color="#808080" stop-opacity="0.25"/>
<stop offset="0.54" stop-color="#808080" stop-opacity="0.12"/>
<stop offset="1" stop-color="#808080" stop-opacity="0.1"/>
</linearGradient>
<linearGradient id="paint2_linear" x1="-6180.48" y1="4428.95" x2="-6169.91" y2="4274.48" gradientUnits="userSpaceOnUse">
<stop stop-color="#808080" stop-opacity="0.25"/>
<stop offset="0.54" stop-color="#808080" stop-opacity="0.12"/>
<stop offset="1" stop-color="#808080" stop-opacity="0.1"/>
</linearGradient>
<linearGradient id="paint3_linear" x1="-14539.9" y1="4313.75" x2="-14451.8" y2="3961.71" gradientUnits="userSpaceOnUse">
<stop stop-color="#808080" stop-opacity="0.25"/>
<stop offset="0.54" stop-color="#808080" stop-opacity="0.12"/>
<stop offset="1" stop-color="#808080" stop-opacity="0.1"/>
</linearGradient>
<linearGradient id="paint4_linear" x1="-6333.46" y1="6971.01" x2="-6362.8" y2="6814.84" gradientUnits="userSpaceOnUse">
<stop stop-color="#808080" stop-opacity="0.25"/>
<stop offset="0.54" stop-color="#808080" stop-opacity="0.12"/>
<stop offset="1" stop-color="#808080" stop-opacity="0.1"/>
</linearGradient>
<linearGradient id="paint5_linear" x1="-5820.17" y1="5748.2" x2="-5809.6" y2="5593.82" gradientUnits="userSpaceOnUse">
<stop stop-color="#808080" stop-opacity="0.25"/>
<stop offset="0.54" stop-color="#808080" stop-opacity="0.12"/>
<stop offset="1" stop-color="#808080" stop-opacity="0.1"/>
</linearGradient>
<linearGradient id="paint6_linear" x1="-15032.5" y1="4901.24" x2="-14944.4" y2="4549.04" gradientUnits="userSpaceOnUse">
<stop stop-color="#808080" stop-opacity="0.25"/>
<stop offset="0.54" stop-color="#808080" stop-opacity="0.12"/>
<stop offset="1" stop-color="#808080" stop-opacity="0.1"/>
</linearGradient>
<linearGradient id="paint7_linear" x1="-16713.8" y1="6632.22" x2="-16625.6" y2="6280.03" gradientUnits="userSpaceOnUse">
<stop stop-color="#808080" stop-opacity="0.25"/>
<stop offset="0.54" stop-color="#808080" stop-opacity="0.12"/>
<stop offset="1" stop-color="#808080" stop-opacity="0.1"/>
</linearGradient>
<linearGradient id="paint8_linear" x1="-22256.5" y1="7132.61" x2="-22168.4" y2="6780.57" gradientUnits="userSpaceOnUse">
<stop stop-color="#808080" stop-opacity="0.25"/>
<stop offset="0.54" stop-color="#808080" stop-opacity="0.12"/>
<stop offset="1" stop-color="#808080" stop-opacity="0.1"/>
</linearGradient>
<linearGradient id="paint9_linear" x1="-6436.25" y1="7983.59" x2="-6465.59" y2="7827.43" gradientUnits="userSpaceOnUse">
<stop stop-color="#808080" stop-opacity="0.25"/>
<stop offset="0.54" stop-color="#808080" stop-opacity="0.12"/>
<stop offset="1" stop-color="#808080" stop-opacity="0.1"/>
</linearGradient>
<linearGradient id="paint10_linear" x1="-11820.5" y1="9782.66" x2="-11849.8" y2="9626.5" gradientUnits="userSpaceOnUse">
<stop stop-color="#808080" stop-opacity="0.25"/>
<stop offset="0.54" stop-color="#808080" stop-opacity="0.12"/>
<stop offset="1" stop-color="#808080" stop-opacity="0.1"/>
</linearGradient>
<linearGradient id="paint11_linear" x1="-11411.8" y1="8192.63" x2="-11441.1" y2="8036.56" gradientUnits="userSpaceOnUse">
<stop stop-color="#808080" stop-opacity="0.25"/>
<stop offset="0.54" stop-color="#808080" stop-opacity="0.12"/>
<stop offset="1" stop-color="#808080" stop-opacity="0.1"/>
</linearGradient>
<linearGradient id="paint12_linear" x1="-14034.4" y1="7044.03" x2="-14063.8" y2="6887.87" gradientUnits="userSpaceOnUse">
<stop stop-color="#808080" stop-opacity="0.25"/>
<stop offset="0.54" stop-color="#808080" stop-opacity="0.12"/>
<stop offset="1" stop-color="#808080" stop-opacity="0.1"/>
</linearGradient>
<linearGradient id="paint13_linear" x1="-4099.41" y1="6875.7" x2="-4128.74" y2="6719.54" gradientUnits="userSpaceOnUse">
<stop stop-color="#808080" stop-opacity="0.25"/>
<stop offset="0.54" stop-color="#808080" stop-opacity="0.12"/>
<stop offset="1" stop-color="#808080" stop-opacity="0.1"/>
</linearGradient>
<linearGradient id="paint14_linear" x1="-16792.3" y1="7330.5" x2="-16767.7" y2="6969.85" gradientUnits="userSpaceOnUse">
<stop stop-color="#808080" stop-opacity="0.25"/>
<stop offset="0.54" stop-color="#808080" stop-opacity="0.12"/>
<stop offset="1" stop-color="#808080" stop-opacity="0.1"/>
</linearGradient>
<linearGradient id="paint15_linear" x1="-25678.6" y1="42868.4" x2="-26544.2" y2="41246.2" gradientUnits="userSpaceOnUse">
<stop stop-color="#808080" stop-opacity="0.25"/>
<stop offset="0.54" stop-color="#808080" stop-opacity="0.12"/>
<stop offset="1" stop-color="#808080" stop-opacity="0.1"/>
</linearGradient>
<linearGradient id="paint16_linear" x1="-68286.1" y1="110875" x2="-71891.7" y2="103647" gradientUnits="userSpaceOnUse">
<stop stop-color="#808080" stop-opacity="0.25"/>
<stop offset="0.54" stop-color="#808080" stop-opacity="0.12"/>
<stop offset="1" stop-color="#808080" stop-opacity="0.1"/>
</linearGradient>
<linearGradient id="paint17_linear" x1="-46769.7" y1="20109.7" x2="-46749.7" y2="18196.2" gradientUnits="userSpaceOnUse">
<stop stop-color="#808080" stop-opacity="0.25"/>
<stop offset="0.54" stop-color="#808080" stop-opacity="0.12"/>
<stop offset="1" stop-color="#808080" stop-opacity="0.1"/>
</linearGradient>
<linearGradient id="paint18_linear" x1="-50405.3" y1="23071.9" x2="-50385.3" y2="21158.4" gradientUnits="userSpaceOnUse">
<stop stop-color="#808080" stop-opacity="0.25"/>
<stop offset="0.54" stop-color="#808080" stop-opacity="0.12"/>
<stop offset="1" stop-color="#808080" stop-opacity="0.1"/>
</linearGradient>
<linearGradient id="paint19_linear" x1="-14625.5" y1="8415.32" x2="-14600.8" y2="8054.67" gradientUnits="userSpaceOnUse">
<stop stop-color="#808080" stop-opacity="0.25"/>
<stop offset="0.54" stop-color="#808080" stop-opacity="0.12"/>
<stop offset="1" stop-color="#808080" stop-opacity="0.1"/>
</linearGradient>
<linearGradient id="paint20_linear" x1="-18735" y1="8095.72" x2="-18710.3" y2="7735.07" gradientUnits="userSpaceOnUse">
<stop stop-color="#808080" stop-opacity="0.25"/>
<stop offset="0.54" stop-color="#808080" stop-opacity="0.12"/>
<stop offset="1" stop-color="#808080" stop-opacity="0.1"/>
</linearGradient>
</defs>
</svg>
