<svg width="148" height="85" viewBox="0 0 148 85" fill="none" xmlns="http://www.w3.org/2000/svg">
<path d="M23.05 48H19.15V13H23.3L31.45 38.6V13H35.35V48H31.2L23.05 22.45V48ZM40.7598 39.65C40.7598 36.4833 41.2264 34.3333 42.1598 33.2C43.0931 32.0333 44.4264 31.45 46.1598 31.45C47.8931 31.45 49.2598 32.1167 50.2598 33.45V28.2C50.2598 25 49.2598 23.4 47.2598 23.4C45.5598 23.4 43.9431 24.3833 42.4098 26.35L41.0598 23.55C41.8264 22.6167 42.7931 21.8333 43.9598 21.2C45.1598 20.5667 46.3764 20.25 47.6098 20.25C51.9431 20.25 54.1098 23.1833 54.1098 29.05V48H51.7598L50.9598 44.75C50.5931 46.0833 49.9764 47.0833 49.1098 47.75C48.2764 48.4167 47.3264 48.75 46.2598 48.75C44.4598 48.75 43.0931 48.1833 42.1598 47.05C41.2264 45.8833 40.7598 43.7167 40.7598 40.55V39.65ZM47.0598 45.6C48.0264 45.6 48.7764 45.25 49.3098 44.55C49.8764 43.85 50.1931 42.5833 50.2598 40.75V39.4C50.1931 37.4333 49.8764 36.0667 49.3098 35.3C48.7764 34.5333 48.0264 34.15 47.0598 34.15C45.3931 34.15 44.5598 35.7333 44.5598 38.9V40.85C44.5598 44.0167 45.3931 45.6 47.0598 45.6ZM68.418 20.25L69.418 20.3L69.118 24.55C68.6513 24.3167 68.2013 24.2 67.768 24.2C65.2346 24.2 63.9513 26.8333 63.918 32.1V48H60.068V21H62.418L63.518 25.6C64.1846 22.0333 65.818 20.25 68.418 20.25ZM81.3086 20.25L82.3086 20.3L82.0086 24.55C81.5419 24.3167 81.0919 24.2 80.6586 24.2C78.1253 24.2 76.8419 26.8333 76.8086 32.1V48H72.9586V21H75.3086L76.4086 25.6C77.0753 22.0333 78.7086 20.25 81.3086 20.25ZM84.9492 39.65C84.9492 36.4833 85.4159 34.3333 86.3492 33.2C87.2826 32.0333 88.6159 31.45 90.3492 31.45C92.0826 31.45 93.4492 32.1167 94.4492 33.45V28.2C94.4492 25 93.4492 23.4 91.4492 23.4C89.7492 23.4 88.1326 24.3833 86.5992 26.35L85.2492 23.55C86.0159 22.6167 86.9826 21.8333 88.1492 21.2C89.3492 20.5667 90.5659 20.25 91.7992 20.25C96.1326 20.25 98.2992 23.1833 98.2992 29.05V48H95.9492L95.1492 44.75C94.7826 46.0833 94.1659 47.0833 93.2992 47.75C92.4659 48.4167 91.5159 48.75 90.4492 48.75C88.6492 48.75 87.2826 48.1833 86.3492 47.05C85.4159 45.8833 84.9492 43.7167 84.9492 40.55V39.65ZM91.2492 45.6C92.2159 45.6 92.9659 45.25 93.4992 44.55C94.0659 43.85 94.3826 42.5833 94.4492 40.75V39.4C94.3826 37.4333 94.0659 36.0667 93.4992 35.3C92.9659 34.5333 92.2159 34.15 91.2492 34.15C89.5826 34.15 88.7492 35.7333 88.7492 38.9V40.85C88.7492 44.0167 89.5826 45.6 91.2492 45.6ZM102.107 24.1V21H104.757L106.107 14.35H108.407V21H111.957V24.1H108.407V42.9C108.407 44.6667 108.891 45.55 109.857 45.55C110.491 45.55 111.157 45.2833 111.857 44.75L112.607 47.7C111.474 48.4 110.307 48.75 109.107 48.75C106.107 48.75 104.607 46.5333 104.607 42.1V24.1H102.107ZM129.47 41C129.237 43.9 128.554 45.9167 127.42 47.05C126.287 48.1833 124.637 48.75 122.47 48.75C120.337 48.75 118.637 48 117.37 46.5C116.137 44.9667 115.52 42.2167 115.52 38.25V30.75C115.52 26.7833 116.137 24.05 117.37 22.55C118.637 21.0167 120.404 20.25 122.67 20.25C124.937 20.25 126.654 21 127.82 22.5C128.987 24 129.57 26.75 129.57 30.75V36.1H119.32V38.95C119.32 43.4167 120.387 45.65 122.52 45.65C123.554 45.65 124.354 45.2833 124.92 44.55C125.487 43.8167 125.887 42.45 126.12 40.45L129.47 41ZM119.32 30.05V32.9H125.72V30.05C125.72 25.5833 124.67 23.35 122.57 23.35C120.404 23.35 119.32 25.5833 119.32 30.05Z" fill="#7646FF"/>
<path d="M1 48.3547C1 46.3044 2.94046 44.809 4.92317 45.3315L61.2545 60.1755C69.6089 62.377 78.3911 62.377 86.7455 60.1755L143.077 45.3315C145.06 44.809 147 46.3044 147 48.3547C147 49.5762 146.289 50.6858 145.179 51.1957L94.4575 74.5001C81.4717 80.4665 66.5283 80.4665 53.5425 74.5001L2.82118 51.1957C1.7113 50.6858 1 49.5762 1 48.3547Z" fill="#C4AFFF" stroke="#7646FF" stroke-width="2"/>
</svg>
